<svg xmlns="http://www.w3.org/2000/svg" width="43" height="34"><defs><linearGradient id="a" x1="14" x2="29" y1="34.02" y2="-.03" gradientUnits="userSpaceOnUse"><stop offset="0" stop-color="#e12462"/><stop offset="1" stop-color="#ff4d87"/></linearGradient></defs><path d="M19.488 30.903c2.657-.81 5.256-3.729 5.256-3.729s12.588-11.06 13.295-14.602c.945-4.74-2.14-6.734-5.102-7.612-3.269-.968-5.72 2.176-5.72 2.176l-6.029 6.058s-2.091 2.797-4.637 3.417c-2.546.62-3.401-.31-3.401-.31l-3.71-3.573s-1.398-2.341-.155-3.262c2.152-1.595 3.556 0 3.556 0s1.63 1.94 2.628 1.864c.997-.077 1.39-.777 1.39-.777l7.112-7.457S27.018-.276 32.473-.01c5.073.247 9.256 3.887 10.358 9.786.926 4.957-2.319 8.233-2.319 8.233L28.918 29.816s-2.788 3.943-7.111 4.194c-4.324.25-7.111-3.728-7.111-3.728s2.157 1.425 4.792.62zM15.005 6.359s-4.31-3.486-8.348.155C3.039 9.775 5.266 13.66 5.266 13.66l5.72 6.369s1.422 1.758 4.173 2.02c2.752.261 4.174-1.71 4.174-1.71L29.691 9.776s1.735-1.9 3.71-.466c1.975 1.435-.31 4.194-.31 4.194l-9.43 9.321s-4.093 4.53-8.656 4.505c-4.564-.025-6.338-2.796-6.338-2.796s-1.829-1.753-.237-.244c1.665 1.58-5.792-5.97-5.792-5.97S-.167 15.04.01 10.553C.186 6.065 3.767 1.32 8.667.3c6.98-1.454 10.666 3.418 10.666 3.418l-3.4 3.262z"/><path fill="url(#a)" d="M19.488 30.903c2.657-.81 5.256-3.729 5.256-3.729s12.588-11.06 13.295-14.602c.945-4.74-2.14-6.734-5.102-7.612-3.269-.968-5.72 2.176-5.72 2.176l-6.029 6.058s-2.091 2.797-4.637 3.417c-2.546.62-3.401-.31-3.401-.31l-3.71-3.573s-1.398-2.341-.155-3.262c2.152-1.595 3.556 0 3.556 0s1.63 1.94 2.628 1.864c.997-.077 1.39-.777 1.39-.777l7.112-7.457S27.018-.276 32.473-.01c5.073.247 9.256 3.887 10.358 9.786.926 4.957-2.319 8.233-2.319 8.233L28.918 29.816s-2.788 3.943-7.111 4.194c-4.324.25-7.111-3.728-7.111-3.728s2.157 1.425 4.792.62zM15.005 6.359s-4.31-3.486-8.348.155C3.039 9.775 5.266 13.66 5.266 13.66l5.72 6.369s1.422 1.758 4.173 2.02c2.752.261 4.174-1.71 4.174-1.71L29.691 9.776s1.735-1.9 3.71-.466c1.975 1.435-.31 4.194-.31 4.194l-9.43 9.321s-4.093 4.53-8.656 4.505c-4.564-.025-6.338-2.796-6.338-2.796s-1.829-1.753-.237-.244c1.665 1.58-5.792-5.97-5.792-5.97S-.167 15.04.01 10.553C.186 6.065 3.767 1.32 8.667.3c6.98-1.454 10.666 3.418 10.666 3.418l-3.4 3.262z"/></svg>